<svg width="1024" height="864" viewBox="0 0 1024 864" fill="none" xmlns="http://www.w3.org/2000/svg">
<path d="M33.3443 210.172C59.1362 207.459 113.157 208.762 140.432 208.769L330.217 208.878C379.056 208.913 693.483 204.105 717.472 212.359C727.755 215.898 739.902 226.251 744.465 236.22C749.361 246.916 750.715 260.653 751.307 272.269C754.818 341.033 751.497 411.56 751.143 480.513C750.916 524.749 754.042 570.126 751.953 614.157C751.633 622.267 750.055 630.28 747.272 637.904C741.068 654.819 732.14 660.767 717 667.641C697.377 672.407 53.6266 672.03 38.9535 668.072C26.9646 664.839 15.4617 657.117 9.50781 646.102C4.8775 637.536 2.60282 626.609 1.81606 616.976C-2.29129 566.655 1.84147 513.142 1.92015 462.485C2.02197 397.238 -0.944585 331.277 1.31157 266.124C1.6147 257.352 2.1215 247.584 4.97698 239.206C10.047 224.332 20.1591 217.162 33.3443 210.172ZM700.543 361.343L703.981 360.552C706.737 348.571 706.665 266.856 701.32 255.919C695.79 250.829 693.33 250.88 684.574 250.73C654.098 250.202 623.114 250.533 592.636 250.531L407.69 250.487L177.988 250.457C139.654 250.455 93.506 249.221 56.0215 250.836C54.9432 250.892 53.8672 250.959 52.7912 251.038C44.2479 267.043 47.7652 337.913 47.9387 360.959L700.543 361.343ZM93.823 432.16C112.543 445.443 153.601 470.403 168.419 482.458C143.338 500.719 118.574 519.412 94.1354 538.526C101.003 545.888 106.879 553.647 115.841 557.651L119.985 554.873C135.926 542.379 207.364 491.364 210.421 478.604C207.621 465.876 133.772 424.147 117.056 410.333L93.823 432.16ZM217.655 567.689L343.955 567.631L344.186 540.266L218.289 540.421L217.655 567.689Z" fill="#FFF8F8"/>
<path d="M204.166 276.846C214.952 274.177 226.341 277.531 233.961 285.62C241.583 293.71 244.251 305.28 240.947 315.893C237.64 326.505 228.873 334.511 218.008 336.839C201.57 340.362 185.346 330.042 181.565 313.657C177.786 297.274 187.845 280.885 204.166 276.846Z" fill="#FFF8F8"/>
<path d="M115.201 276.862C131.241 273.536 147.046 283.463 151.021 299.357C154.997 315.251 145.725 331.451 130.01 336.071C119.259 339.23 107.641 336.246 99.7431 328.298C91.8431 320.348 88.9321 308.708 92.1578 297.975C95.3858 287.243 104.23 279.137 115.201 276.862Z" fill="#FFF8F8"/>
<path d="M753.326 0.00242143C802.489 -0.275327 850.287 23.368 885.187 57.0334C981.956 150.38 1019.85 294.251 1023.57 425.094C1027.63 554.48 1003.64 694.442 913.991 793.434C832.388 883.542 701.466 885.658 613.463 803.044C634.002 810.64 652.403 817.313 674.467 819.878C918.464 858.631 972.762 558.651 951.881 380.508C928.502 181.094 828.001 -34.4383 587.854 74.1589C638.146 21.1229 679.979 -0.122565 753.326 0.00242143Z" fill="#FFF8F8"/>
<path d="M669.555 89.7343C722.617 87.6766 761.217 96.7566 801.856 134.725C880.596 211.112 902.79 328.542 908.802 433.816C916.505 568.688 874.545 779.638 704.443 785.23C639.538 787.366 591.147 753.293 546.115 709.508C561.919 716.149 576.227 721.35 592.316 727.06L593.753 727.543C813.058 799.619 862.05 556.053 842.473 395.144C820.092 211.194 736.518 63.4084 530.791 175.221C572.254 125.416 605.138 101.58 669.555 89.7343Z" fill="#FFF8F8"/>
</svg>
